{
    "accessors" : [
        {
            "bufferView" : 0,
            "componentType" : 5123,
            "count" : 15501,
            "max" : [
                6302
            ],
            "min" : [
                0
            ],
            "type" : "SCALAR"
        },
        {
            "bufferView" : 1,
            "componentType" : 5126,
            "count" : 6303,
            "max" : [
                0.23154300451278687,
                0.19696199893951416,
                -0.0
            ],
            "min" : [
                -0.23154300451278687,
                -0.24345900118350983,
                -0.03899500146508217
            ],
            "type" : "VEC3"
        },
        {
            "bufferView" : 2,
            "componentType" : 5126,
            "count" : 6303,
            "max" : [
                0.9297463893890381,
                1.0,
                1.0
            ],
            "min" : [
                -0.9053316116333008,
                -0.9938047528266907,
                -1.0
            ],
            "type" : "VEC3"
        },
        {
            "bufferView" : 3,
            "componentType" : 5126,
            "count" : 6303,
            "max" : [
                1.0,
                0.0,
                -0.0,
                1.0
            ],
            "min" : [
                1.0,
                0.0,
                -0.0,
                -1.0
            ],
            "type" : "VEC4"
        },
        {
            "bufferView" : 4,
            "componentType" : 5126,
            "count" : 6303,
            "max" : [
                0.0,
                1.0
            ],
            "min" : [
                0.0,
                1.0
            ],
            "type" : "VEC2"
        }
    ],
    "asset" : {
        "generator" : "Khronos Blender glTF 2.0 exporter",
        "version" : "2.0"
    },
    "bufferViews" : [
        {
            "buffer" : 0,
            "byteLength" : 31002,
            "byteOffset" : 0,
            "target" : 34963
        },
        {
            "buffer" : 0,
            "byteLength" : 75636,
            "byteOffset" : 31004,
            "target" : 34962
        },
        {
            "buffer" : 0,
            "byteLength" : 75636,
            "byteOffset" : 106640,
            "target" : 34962
        },
        {
            "buffer" : 0,
            "byteLength" : 100848,
            "byteOffset" : 182276,
            "target" : 34962
        },
        {
            "buffer" : 0,
            "byteLength" : 50424,
            "byteOffset" : 283124,
            "target" : 34962
        }
    ],
    "buffers" : [
        {
            "byteLength" : 333548,
            "uri" : "star.bin"
        }
    ],
    "materials" : [
        {
            "alphaMode" : "BLEND",
            "name" : "None",
            "pbrMetallicRoughness" : {
                "baseColorFactor" : [
                    0.6400000190734865,
                    0.6400000190734865,
                    0.6400000190734865,
                    1.0
                ],
                "metallicFactor" : 0.0
            }
        }
    ],
    "meshes" : [
        {
            "name" : "\u5706\u73af_\u5706\u73af.001",
            "primitives" : [
                {
                    "attributes" : {
                        "NORMAL" : 2,
                        "POSITION" : 1,
                        "TANGENT" : 3,
                        "TEXCOORD_0" : 4
                    },
                    "indices" : 0,
                    "material" : 0
                }
            ]
        }
    ],
    "nodes" : [
        {
            "mesh" : 0,
            "name" : "\u5706\u73af_\u5706\u73af.001",
            "rotation" : [
                0.7071068286895752,
                0.0,
                -0.0,
                0.7071067094802856
            ]
        }
    ],
    "scene" : 0,
    "scenes" : [
        {
            "name" : "Scene",
            "nodes" : [
                0
            ]
        }
    ]
}
