{
    "accessors" : [
        {
            "bufferView" : 0,
            "componentType" : 5123,
            "count" : 2520,
            "max" : [
                659
            ],
            "min" : [
                0
            ],
            "type" : "SCALAR"
        },
        {
            "bufferView" : 1,
            "componentType" : 5126,
            "count" : 660,
            "max" : [
                1.0,
                1.1500129699707031,
                1.0
            ],
            "min" : [
                -1.0,
                -1.0,
                -1.0
            ],
            "type" : "VEC3"
        },
        {
            "bufferView" : 2,
            "componentType" : 5126,
            "count" : 660,
            "max" : [
                1.0,
                1.0,
                1.0
            ],
            "min" : [
                -1.0,
                -1.0,
                -1.0
            ],
            "type" : "VEC3"
        },
        {
            "bufferView" : 3,
            "componentType" : 5126,
            "count" : 660,
            "max" : [
                1.0,
                1.0,
                -0.0,
                1.0
            ],
            "min" : [
                -1.0,
                0.0,
                -0.0,
                -1.0
            ],
            "type" : "VEC4"
        },
        {
            "bufferView" : 4,
            "componentType" : 5126,
            "count" : 660,
            "max" : [
                0.875,
                1.0
            ],
            "min" : [
                0.125,
                0.0
            ],
            "type" : "VEC2"
        }
    ],
    "asset" : {
        "generator" : "Khronos Blender glTF 2.0 exporter",
        "version" : "2.0"
    },
    "bufferViews" : [
        {
            "buffer" : 0,
            "byteLength" : 5040,
            "byteOffset" : 0,
            "target" : 34963
        },
        {
            "buffer" : 0,
            "byteLength" : 7920,
            "byteOffset" : 5040,
            "target" : 34962
        },
        {
            "buffer" : 0,
            "byteLength" : 7920,
            "byteOffset" : 12960,
            "target" : 34962
        },
        {
            "buffer" : 0,
            "byteLength" : 10560,
            "byteOffset" : 20880,
            "target" : 34962
        },
        {
            "buffer" : 0,
            "byteLength" : 5280,
            "byteOffset" : 31440,
            "target" : 34962
        }
    ],
    "buffers" : [
        {
            "byteLength" : 36720,
            "uri" : "untitled.bin"
        }
    ],
    "meshes" : [
        {
            "name" : "ShapeIndexedFaceSet",
            "primitives" : [
                {
                    "attributes" : {
                        "NORMAL" : 2,
                        "POSITION" : 1,
                        "TANGENT" : 3,
                        "TEXCOORD_0" : 4
                    },
                    "indices" : 0
                }
            ]
        }
    ],
    "nodes" : [
        {
            "name" : "Lamp",
            "rotation" : [
                0.16907575726509094,
                0.7558802962303162,
                -0.27217137813568115,
                0.570947527885437
            ],
            "scale" : [
                1.0,
                1.0,
                0.9999998807907104
            ],
            "translation" : [
                4.076245307922363,
                5.903861999511719,
                -1.0054539442062378
            ]
        },
        {
            "mesh" : 0,
            "name" : "ShapeIndexedFaceSet",
            "rotation" : [
                1.776358533466145e-15,
                1.376787679419067e-07,
                -1.376787679419067e-07,
                1.0
            ],
            "scale" : [
                1.0,
                1.2883861064910889,
                0.8747571110725403
            ]
        },
        {
            "name" : "Viewpoint",
            "rotation" : [
                0.4835357367992401,
                0.33687180280685425,
                -0.2087031453847885,
                0.7804829478263855
            ],
            "scale" : [
                1.0,
                1.0,
                1.0000004768371582
            ],
            "translation" : [
                7.358891010284424,
                4.958309173583984,
                6.925790786743164
            ]
        }
    ],
    "scene" : 0,
    "scenes" : [
        {
            "name" : "Scene",
            "nodes" : [
                1,
                2,
                0
            ]
        }
    ]
}
