{
    "accessors" : [
        {
            "bufferView" : 0,
            "componentType" : 5123,
            "count" : 22878,
            "max" : [
                6853
            ],
            "min" : [
                0
            ],
            "type" : "SCALAR"
        },
        {
            "bufferView" : 1,
            "componentType" : 5126,
            "count" : 6854,
            "max" : [
                2.1407320499420166,
                3.0658600330352783,
                0.994858980178833
            ],
            "min" : [
                -3.803607940673828,
                -0.6493560075759888,
                -5.030402183532715
            ],
            "type" : "VEC3"
        },
        {
            "bufferView" : 2,
            "componentType" : 5126,
            "count" : 6854,
            "max" : [
                1.0,
                1.0,
                1.0
            ],
            "min" : [
                -1.0,
                -1.0,
                -1.0
            ],
            "type" : "VEC3"
        },
        {
            "bufferView" : 3,
            "componentType" : 5126,
            "count" : 6854,
            "max" : [
                0.875,
                1.0
            ],
            "min" : [
                0.125,
                0.0
            ],
            "type" : "VEC2"
        }
    ],
    "asset" : {
        "generator" : "Khronos Blender glTF 2.0 exporter",
        "version" : "2.0"
    },
    "bufferViews" : [
        {
            "buffer" : 0,
            "byteLength" : 45756,
            "byteOffset" : 0,
            "target" : 34963
        },
        {
            "buffer" : 0,
            "byteLength" : 82248,
            "byteOffset" : 45756,
            "target" : 34962
        },
        {
            "buffer" : 0,
            "byteLength" : 82248,
            "byteOffset" : 128004,
            "target" : 34962
        },
        {
            "buffer" : 0,
            "byteLength" : 54832,
            "byteOffset" : 210252,
            "target" : 34962
        }
    ],
    "buffers" : [
        {
            "byteLength" : 265084,
            "uri" : "bd_EE.bin"
        }
    ],
    "materials" : [
        {
            "alphaMode" : "BLEND",
            "name" : "MA_Material.002",
            "pbrMetallicRoughness" : {
                "baseColorFactor" : [
                    0.06552159883859154,
                    0.4645296166022064,
                    0.6400000190734865,
                    1.0
                ],
                "metallicFactor" : 0.0
            }
        }
    ],
    "meshes" : [
        {
            "name" : "Shape_IndexedFaceSet_Shape_IndexedFaceSet.002",
            "primitives" : [
                {
                    "attributes" : {
                        "NORMAL" : 2,
                        "POSITION" : 1,
                        "TEXCOORD_0" : 3
                    },
                    "indices" : 0,
                    "material" : 0
                }
            ]
        }
    ],
    "nodes" : [
        {
            "mesh" : 0,
            "name" : "Shape_IndexedFaceSet_Shape_IndexedFaceSet.002",
            "rotation" : [
                0.7071068286895752,
                0.0,
                -0.0,
                0.7071067094802856
            ],
            "translation" : [
                1.088179588317871,
                0.8917344808578491,
                -0.0
            ]
        }
    ],
    "scene" : 0,
    "scenes" : [
        {
            "name" : "Scene",
            "nodes" : [
                0
            ]
        }
    ]
}
