{
    "accessors" : [
        {
            "bufferView" : 0,
            "componentType" : 5123,
            "count" : 558,
            "max" : [
                423
            ],
            "min" : [
                0
            ],
            "type" : "SCALAR"
        },
        {
            "bufferView" : 1,
            "componentType" : 5126,
            "count" : 424,
            "max" : [
                2.0,
                1.0,
                2.0
            ],
            "min" : [
                -2.0,
                -79.10065460205078,
                -2.0
            ],
            "type" : "VEC3"
        },
        {
            "bufferView" : 2,
            "componentType" : 5126,
            "count" : 424,
            "max" : [
                1.0,
                1.0,
                1.0
            ],
            "min" : [
                -1.0,
                -1.0,
                -1.0
            ],
            "type" : "VEC3"
        },
        {
            "bufferView" : 3,
            "componentType" : 5126,
            "count" : 424,
            "max" : [
                1.0,
                1.0,
                0.9951846599578857,
                1.0
            ],
            "min" : [
                -1.0,
                -2.509668775019236e-06,
                -0.9951846599578857,
                -1.0
            ],
            "type" : "VEC4"
        },
        {
            "bufferView" : 4,
            "componentType" : 5126,
            "count" : 424,
            "max" : [
                1.0,
                1.0
            ],
            "min" : [
                0.0,
                0.0
            ],
            "type" : "VEC2"
        }
    ],
    "asset" : {
        "generator" : "Khronos Blender glTF 2.0 exporter",
        "version" : "2.0"
    },
    "bufferViews" : [
        {
            "buffer" : 0,
            "byteLength" : 1116,
            "byteOffset" : 0,
            "target" : 34963
        },
        {
            "buffer" : 0,
            "byteLength" : 5088,
            "byteOffset" : 1116,
            "target" : 34962
        },
        {
            "buffer" : 0,
            "byteLength" : 5088,
            "byteOffset" : 6204,
            "target" : 34962
        },
        {
            "buffer" : 0,
            "byteLength" : 6784,
            "byteOffset" : 11292,
            "target" : 34962
        },
        {
            "buffer" : 0,
            "byteLength" : 3392,
            "byteOffset" : 18076,
            "target" : 34962
        }
    ],
    "buffers" : [
        {
            "byteLength" : 21468,
            "uri" : "rubbish-bin.bin"
        }
    ],
    "meshes" : [
        {
            "name" : "ShapeIndexedFaceSet",
            "primitives" : [
                {
                    "attributes" : {
                        "NORMAL" : 2,
                        "POSITION" : 1,
                        "TANGENT" : 3,
                        "TEXCOORD_0" : 4
                    },
                    "indices" : 0
                }
            ]
        }
    ],
    "nodes" : [
        {
            "mesh" : 0,
            "name" : "ShapeIndexedFaceSet",
            "rotation" : [
                1.7763576864331977e-15,
                1.376787679419067e-07,
                -1.376787679419067e-07,
                1.0
            ],
            "scale" : [
                1.0,
                0.10000001639127731,
                1.0000001192092896
            ],
            "translation" : [
                -0.5118499994277954,
                4.9100661277771,
                -0.0
            ]
        }
    ],
    "scene" : 0,
    "scenes" : [
        {
            "name" : "Scene",
            "nodes" : [
                0
            ]
        }
    ]
}
