{
    "asset" : {
        "generator" : "Khronos glTF Blender I/O v3.2.15",
        "version" : "2.0"
    },
    "scene" : 0,
    "scenes" : [
        {
            "name" : "Scene",
            "nodes" : [
                0
            ]
        }
    ],
    "nodes" : [
        {
            "mesh" : 0,
            "name" : "Shape_IndexedFaceSet.003",
            "rotation" : [
                0,
                -0.1032148078083992,
                0,
                0.9946591258049011
            ],
            "scale" : [
                0.4950733780860901,
                0.48775702714920044,
                0.3414299488067627
            ]
        }
    ],
    "materials" : [
        {
            "doubleSided" : true,
            "name" : "MA_Material.006",
            "pbrMetallicRoughness" : {
                "baseColorFactor" : [
                    0.6119120717048645,
                    0.8000000715255737,
                    0.15473291277885437,
                    1
                ],
                "metallicFactor" : 0,
                "roughnessFactor" : 0.5
            }
        }
    ],
    "meshes" : [
        {
            "name" : "Shape_IndexedFaceSet.010",
            "primitives" : [
                {
                    "attributes" : {
                        "POSITION" : 0,
                        "NORMAL" : 1,
                        "TEXCOORD_0" : 2
                    },
                    "indices" : 3,
                    "material" : 0
                }
            ]
        }
    ],
    "accessors" : [
        {
            "bufferView" : 0,
            "componentType" : 5126,
            "count" : 229,
            "max" : [
                2.112861394882202,
                1,
                7.897076606750488
            ],
            "min" : [
                -8.519501686096191,
                -1,
                -10.426573753356934
            ],
            "type" : "VEC3"
        },
        {
            "bufferView" : 1,
            "componentType" : 5126,
            "count" : 229,
            "type" : "VEC3"
        },
        {
            "bufferView" : 2,
            "componentType" : 5126,
            "count" : 229,
            "type" : "VEC2"
        },
        {
            "bufferView" : 3,
            "componentType" : 5123,
            "count" : 570,
            "type" : "SCALAR"
        }
    ],
    "bufferViews" : [
        {
            "buffer" : 0,
            "byteLength" : 2748,
            "byteOffset" : 0
        },
        {
            "buffer" : 0,
            "byteLength" : 2748,
            "byteOffset" : 2748
        },
        {
            "buffer" : 0,
            "byteLength" : 1832,
            "byteOffset" : 5496
        },
        {
            "buffer" : 0,
            "byteLength" : 1140,
            "byteOffset" : 7328
        }
    ],
    "buffers" : [
        {
            "byteLength" : 8468,
            "uri" : "build_Alsop.bin"
        }
    ]
}
