{
    "asset" : {
        "generator" : "Khronos glTF Blender I/O v3.2.15",
        "version" : "2.0"
    },
    "scene" : 0,
    "scenes" : [
        {
            "name" : "Scene",
            "nodes" : [
                0
            ]
        }
    ],
    "nodes" : [
        {
            "mesh" : 0,
            "name" : "Shape_IndexedFaceSet",
            "rotation" : [
                0,
                0.7071068286895752,
                0,
                0.7071068286895752
            ],
            "scale" : [
                1.8576066493988037,
                2.9344961643218994,
                2.972170352935791
            ]
        }
    ],
    "materials" : [
        {
            "doubleSided" : true,
            "name" : "MA_Material.008",
            "pbrMetallicRoughness" : {
                "baseColorFactor" : [
                    0.08190207928419113,
                    0.5806623697280884,
                    0.8000000715255737,
                    1
                ],
                "metallicFactor" : 0,
                "roughnessFactor" : 0.5
            }
        }
    ],
    "meshes" : [
        {
            "name" : "Shape_IndexedFaceSet.005",
            "primitives" : [
                {
                    "attributes" : {
                        "POSITION" : 0,
                        "NORMAL" : 1,
                        "TEXCOORD_0" : 2
                    },
                    "indices" : 3,
                    "material" : 0
                }
            ]
        }
    ],
    "accessors" : [
        {
            "bufferView" : 0,
            "componentType" : 5126,
            "count" : 8482,
            "max" : [
                1.0057059526443481,
                0.9759824275970459,
                1.0011074542999268
            ],
            "min" : [
                -0.9942941069602966,
                -1.0772695541381836,
                -0.9988925457000732
            ],
            "type" : "VEC3"
        },
        {
            "bufferView" : 1,
            "componentType" : 5126,
            "count" : 8482,
            "type" : "VEC3"
        },
        {
            "bufferView" : 2,
            "componentType" : 5126,
            "count" : 8482,
            "type" : "VEC2"
        },
        {
            "bufferView" : 3,
            "componentType" : 5123,
            "count" : 22962,
            "type" : "SCALAR"
        }
    ],
    "bufferViews" : [
        {
            "buffer" : 0,
            "byteLength" : 101784,
            "byteOffset" : 0
        },
        {
            "buffer" : 0,
            "byteLength" : 101784,
            "byteOffset" : 101784
        },
        {
            "buffer" : 0,
            "byteLength" : 67856,
            "byteOffset" : 203568
        },
        {
            "buffer" : 0,
            "byteLength" : 45924,
            "byteOffset" : 271424
        }
    ],
    "buffers" : [
        {
            "byteLength" : 317348,
            "uri" : "build_EEE.bin"
        }
    ]
}
