{
    "asset" : {
        "generator" : "Khronos glTF Blender I/O v3.2.15",
        "version" : "2.0"
    },
    "scene" : 0,
    "scenes" : [
        {
            "name" : "Scene",
            "nodes" : [
                0
            ]
        }
    ],
    "nodes" : [
        {
            "mesh" : 0,
            "name" : "Shape_IndexedFaceSet.001",
            "scale" : [
                1.4480286836624146,
                1.975525140762329,
                4.13722562789917
            ]
        }
    ],
    "materials" : [
        {
            "doubleSided" : true,
            "name" : "MA_Material.013",
            "pbrMetallicRoughness" : {
                "baseColorFactor" : [
                    0.800000011920929,
                    0.10300000011920929,
                    0.05400000140070915,
                    1
                ],
                "metallicFactor" : 0,
                "roughnessFactor" : 0.5
            }
        }
    ],
    "meshes" : [
        {
            "name" : "Shape_IndexedFaceSet.016",
            "primitives" : [
                {
                    "attributes" : {
                        "POSITION" : 0,
                        "NORMAL" : 1,
                        "TEXCOORD_0" : 2
                    },
                    "indices" : 3,
                    "material" : 0
                }
            ]
        }
    ],
    "accessors" : [
        {
            "bufferView" : 0,
            "componentType" : 5126,
            "count" : 160,
            "max" : [
                4.008122444152832,
                1.8898552656173706,
                0.4716002941131592
            ],
            "min" : [
                -5.1100358963012695,
                -1.267002820968628,
                -1.5283997058868408
            ],
            "type" : "VEC3"
        },
        {
            "bufferView" : 1,
            "componentType" : 5126,
            "count" : 160,
            "type" : "VEC3"
        },
        {
            "bufferView" : 2,
            "componentType" : 5126,
            "count" : 160,
            "type" : "VEC2"
        },
        {
            "bufferView" : 3,
            "componentType" : 5123,
            "count" : 252,
            "type" : "SCALAR"
        }
    ],
    "bufferViews" : [
        {
            "buffer" : 0,
            "byteLength" : 1920,
            "byteOffset" : 0
        },
        {
            "buffer" : 0,
            "byteLength" : 1920,
            "byteOffset" : 1920
        },
        {
            "buffer" : 0,
            "byteLength" : 1280,
            "byteOffset" : 3840
        },
        {
            "buffer" : 0,
            "byteLength" : 504,
            "byteOffset" : 5120
        }
    ],
    "buffers" : [
        {
            "byteLength" : 5624,
            "uri" : "build_Victoria.bin"
        }
    ]
}
